<svg width="615" height="788" fill="none" xmlns="http://www.w3.org/2000/svg">
  <path fill-rule="evenodd" clip-rule="evenodd" d="M570.395 511.59c114.849-102.472-33.43-160.943-6.102-247.539 27.328-86.596 96.499-216.826-161.592-193.882C144.609 93.113-69.661 353.784 22.35 476.466c92.011 122.681 433.196 137.597 548.045 35.124z" fill="#B2DBE4"/>
  <path fill-rule="evenodd" clip-rule="evenodd" d="M357.328 301.511l22.367 10.861c11.745 5.703 23.693 11.544 33.163 20.513 9.471 8.969 16.245 21.727 14.825 34.668-1.668 15.212-13.733 26.932-25.061 37.264l-44.302 40.408c-6.472 5.903-13.559 14.308-10.073 22.33 9.051 20.834 17.25 44.533 9.02 65.703-2.324 5.977-7.135 12.147-13.562 11.853-4.782-.219-8.574-3.964-11.649-7.619-12.226-14.527-21.297-31.675-26.416-49.935-6.554-23.381-5.754-50.782 10.196-69.132 12.394-14.26 33.75-23.849 35.069-42.666-24.146-20.431-59.076-27.393-89.251-17.79-30.176 9.603-54.589 35.449-62.381 66.042-4.243 16.661 5.255 33.812 16.938 46.459 11.682 12.648 26.013 23.133 35.002 37.804 18.078 29.505 10.186 67.287 1.727 100.813-2.936 11.634-20.649 13.575-29.468 5.408-8.818-8.167-10.337-21.508-9.402-33.468.934-11.96 3.736-24.049 1.386-35.814-6.066-30.365-41.74-44.227-59.22-69.823-13.248-19.399-15.074-44.78-10.168-67.73 4.905-22.949 15.874-44.092 26.727-64.916-20.196-30.806-28.674-69.044-23.384-105.46 2.669-18.375-21.603-32.513-19.076-50.907 2.018-14.681 19.303-21.31 33.915-24.072a358.407 358.407 0 0184.517-5.775c6.32.318 9.102-8.831 5.936-14.291-3.166-5.461-9.346-8.272-14.466-11.98-10.313-7.47-16.793-19.247-20.365-31.442-4.585-15.65-4.594-33.42 3.922-47.342 2.128-3.479 5.787-8.635 11.354-3.638 1.67-8.722 19.403-17.105 30.741-12.423 6.795 2.807 14.037-2.949 18.355-8.882 4.319-5.934 8.496-13.099 15.672-14.709 12.851-2.883 21.08 14.25 19.6 27.292-1.48 13.041-7.236 26.818-1.585 38.673 2.149 4.507 5.871 8.41 6.584 13.35.619 4.284-.49 2.613-2.902 12.478-2.413 9.864-8.225 13.033-10.621 18.49-3.688 8.4-3.134 15.778-10.84 23.213-1.296 1.251 1.344 4.118.412 6.242 18.979.271 33.396 16.041 48.086 28.018 18.268 14.895 40.617 25.315 64.135 27.336 23.517 2.021 48.127-4.854 65.686-20.573 6.874-6.153 23.271 1.886 24.469-7.244.229-2.366-.4-3.384-2.648-3.966-1.163-.301-3.914.325-4.769-.77-2.503-3.209 12.078-8.742 11.462-4.335-.158 1.129-.821 1.963-.737 2.694.245 2.126 1.459 2.782 3.334 3.157 3.952.246 9.613-2.454 11.975-5.851 1.583-2.275.966-2.879-.275-2.979-2.03-.165-5.73 1.016-4.214-1.567 1.863-3.176 6.667-6.188 11.236-3.423.986.597.639 1.756.133 2.894-.928 2.089-2.392 4.108 2.854 2.466 8.107-2.537 8.571-2.062 10.666-1.442 2.095.62 5.17 4.301 7.138 7.74 4.051 7.075 8.207 14.496 8.585 22.633.379 8.137-4.332 17.135-12.342 18.762-.072 2.368 1.09 4.599 2.854 6.168 1.921 1.71 6.859.668 6.029 2.196-2.696 4.964-9.261 6.237-14.429 4.5-1.418-.477 1.855-2.92 2.165-4.613.497-2.711-.068-5.63-1.726-7.845l-14.023 5.914c1.357 1.728.739 3.78 2.096 5.508 1.281 1.632 4.568 1.219 5.119 3.535.6 2.519-4.255 3.576-6.762 3.811-2.749.258-7.027.54-8.307-1.292-1.456-2.083 3.105-2.75 3.315-4.929.23-2.379-.642-4.921-2.738-6.072-4.015-2.205-9.775 1.855-9.026 6.361 1.888 11.353-2.833 23.56-11.878 30.715-9.045 7.155-22.048 8.968-32.717 4.562-9.646-3.984-20.331 1.141-30.313 4.195-22.631 6.926-48.454 2.509-67.471-11.54-1.097 15.705-4.116 32.716-14.191 44.296 1.634.93.794.93 3.993.93z" fill="#F2F2F2"/>
  <path d="M256.67 131.484c3.037 0 5.5-2.454 5.5-5.482 0-3.027-2.463-5.482-5.5-5.482-3.038 0-5.5 2.455-5.5 5.482 0 3.028 2.462 5.482 5.5 5.482zm39.461-10.982a5.5 5.5 0 100-11 5.5 5.5 0 000 11z" fill="#B2DBE4"/>
  <path fill-rule="evenodd" clip-rule="evenodd" d="M328.25 359.989a656.995 656.995 0 00-7.451-3.303c-18.266-7.924-40.175-13.623-57.409-3.666-2.632-16.753 15.394-29.548 31.982-33.338 4.55-1.04 9.244-1.777 13.939-2.514 12.423-1.951 24.849-3.903 34.601-11.455 14.479-11.213 18.34-31.2 19.614-49.428 19.017 14.049 44.84 18.466 67.471 11.54 1.727-.528 3.475-1.119 5.236-1.714 8.412-2.841 17.1-5.776 25.077-2.481 10.669 4.406 23.672 2.593 32.717-4.562 9.045-7.155 13.766-19.362 11.878-30.715-.749-4.506 5.011-8.566 9.026-6.361 2.096 1.151 2.968 3.693 2.738 6.072-.094.975-1.06 1.648-1.967 2.28-1.121.78-2.152 1.498-1.348 2.649 1.28 1.832 5.558 1.55 8.307 1.292 2.507-.235 7.362-1.292 6.762-3.811-.316-1.327-1.53-1.758-2.751-2.191-.909-.323-1.821-.647-2.368-1.344-.679-.864-.864-1.809-1.048-2.754-.185-.945-.37-1.89-1.048-2.754l14.023-5.914c1.658 2.215 2.223 5.134 1.726 7.845-.133.728-.815 1.595-1.435 2.384-.823 1.047-1.538 1.957-.73 2.229 5.168 1.737 11.733.464 14.429-4.5.422-.777-.648-.889-2.054-1.037-1.359-.143-3.031-.319-3.975-1.159-1.764-1.569-2.926-3.8-2.854-6.168 8.01-1.627 12.721-10.625 12.342-18.762-.378-8.137-4.534-15.558-8.585-22.633-1.968-3.439-5.043-7.12-7.138-7.74-.13-.038-.254-.076-.374-.113-1.808-.554-2.689-.824-10.292 1.555-4.709 1.474-4.011-.002-3.148-1.83.099-.209.199-.422.294-.636.506-1.138.853-2.297-.133-2.894-4.569-2.765-9.373.247-11.236 3.423-1.113 1.897.586 1.764 2.371 1.625.646-.051 1.303-.102 1.843-.058 1.241.1 1.858.704.275 2.979-2.362 3.397-8.023 6.097-11.975 5.851-1.875-.375-3.089-1.031-3.334-3.157-.044-.389.122-.807.311-1.282.167-.419.352-.883.426-1.412.616-4.407-13.965 1.126-11.462 4.335.557.714 1.919.697 3.123.681.643-.008 1.241-.015 1.646.089 2.248.582 2.877 1.6 2.648 3.966-.654 4.985-5.84 4.851-11.533 4.704-4.733-.122-9.815-.253-12.936 2.54-17.559 15.719-42.169 22.594-65.686 20.573-23.518-2.021-45.867-12.441-64.135-27.336-2.522-2.056-5.035-4.224-7.565-6.405-12.208-10.529-24.8-21.388-40.521-21.613.461-1.051.048-2.284-.33-3.412-.387-1.153-.737-2.198-.082-2.83 4.059-3.916 6.132-11.543 7.928-18.149 1.614-5.937 3.003-11.048 5.407-11.897 4.811-1.699 6.223-5.941 7.851-10.833l.275-.824c.555-1.656 1.051-2.994 1.473-4.133 1.291-3.485 1.896-5.117 1.429-8.346-.465-3.22-2.209-6-3.962-8.794-.936-1.492-1.874-2.987-2.622-4.555-4.111-8.625-2.185-18.266-.26-27.902.721-3.61 1.442-7.218 1.845-10.771 1.48-13.041-6.749-30.175-19.6-27.292-6.262 1.405-10.24 7.04-14.021 12.395-.553.782-1.101 1.558-1.651 2.314-4.318 5.933-11.56 11.689-18.355 8.882-11.338-4.682-29.071 3.7-30.741 12.423-5.567-4.997-9.226.16-11.354 3.638-8.516 13.922-8.507 31.692-3.922 47.342 3.572 12.195 10.052 23.972 20.365 31.442 1.311.95 2.692 1.841 4.074 2.732 4.014 2.59 8.037 5.186 10.392 9.248 3.166 5.46.384 14.609-5.936 14.291a358.407 358.407 0 00-84.517 5.775c-14.612 2.762-31.897 9.391-33.915 24.072-1.261 9.177 4.149 17.295 9.556 25.408 5.431 8.148 10.858 16.292 9.52 25.499-5.29 36.416 3.188 74.654 23.384 105.46-10.853 20.824-21.822 41.967-26.727 64.916-4.906 22.95-3.08 48.331 10.168 67.73 6.904 10.109 16.645 18.388 26.28 26.575 14.76 12.544 29.269 24.875 32.94 43.248 1.725 8.636.674 17.448-.377 26.255-.38 3.19-.761 6.379-1.009 9.559-.935 11.96.584 25.301 9.402 33.468 5.035 4.663 12.971 6.031 19.399 4.18-.055.984-.112 1.899-.165 2.76-.293 4.691.428 162.52 1.254 166.167.214.95.564 2.032 1.477 2.378 1.818.688 3.031-2.086 2.908-3.97-.465-7.134-2.27-165.912-3.129-168.185 3.741-1.664 6.675-4.583 7.724-8.738 8.459-33.526 16.351-71.308-1.727-100.813-5.972-9.747-14.302-17.647-22.647-25.56-4.215-3.998-8.434-7.999-12.355-12.244-11.683-12.647-21.181-29.798-16.938-46.459 7.792-30.593 32.205-56.439 62.381-66.042 30.175-9.603 65.105-2.641 89.251 17.79-.898 12.817-11.093 21.353-21.419 29.999-4.835 4.048-9.698 8.12-13.65 12.667-15.95 18.35-16.75 45.751-10.196 69.132 5.119 18.26 14.19 35.408 26.416 49.935 3.075 3.655 6.867 7.4 11.649 7.619 6.427.294 11.238-5.876 13.562-11.853 8.23-21.17.031-44.869-9.02-65.703-3.486-8.022 3.601-16.427 10.073-22.33l44.302-40.408c11.328-10.332 23.393-22.052 25.061-37.264 1.42-12.941-5.354-25.699-14.825-34.668-9.47-8.969-21.418-14.81-33.163-20.513l-22.367-10.861c7.373 9.442 18.501 14.743 29.458 19.962 2.117 1.008 4.228 2.013 6.303 3.044 12.821 6.371 25.981 15.668 28.917 29.639 3.606 17.163-9.497 32.917-21.644 45.606-15.383 16.067-30.899 32.25-49.173 44.96-6.218 4.324-13.113 8.348-20.69 8.619-7.578.271-15.822-4.462-17.012-11.924-1.074-6.736 3.584-12.91 7.963-18.152l32.389-38.768c4.923-5.892 11.407-7.425 19.121-9.249 2.714-.642 5.58-1.319 8.584-2.236-18.175.924-33.649-6.011-49.294-13.023zM197.167 255.797c1.308 11.734 4.936 23.484 12.292 32.738 7.357 9.255 18.821 15.697 30.658 15.186 3.964-.172 5.234-6.048 2.88-9.231-2.041-2.76-5.417-4.017-8.69-5.235-.5-.186-.998-.372-1.489-.562-3.699-1.43-7.643-3.824-8.31-7.721 10.437 8.091 26.019 8.842 37.191 1.792 3.888 11.12 16.787 17.797 28.461 15.961 11.674-1.836 21.432-11.133 25.304-22.259.074-.213.147-.428.22-.643.589-1.732 1.193-3.512 2.53-4.738 1.245-1.143 2.943-1.628 4.575-2.078l31.92-8.795c.792-.218 1.691-.424 2.394.001.75.453.957 1.428 1.066 2.295 2.209 17.448-7.622 35.775-23.408 43.641-8.464 4.218-18.137 5.596-27.727 6.963-12.512 1.782-24.883 3.545-34.244 11.568-5.095 4.366-8.629 10.101-12.171 15.848-1.691 2.745-3.385 5.493-5.25 8.095-11.442 15.959-32.455 26.766-51.118 20.53-10.711-3.579-19.037-12.049-25.881-21.006-20.601-26.963-31.475-61.149-30.223-95.014.227-6.144.861-12.365 3.091-18.098a243.212 243.212 0 0048.48 42.925c-.629-3.25-2.889-5.918-5.139-8.354-6.436-6.969-13.541-13.497-20.637-20.017-16.502-15.162-32.963-30.285-40.889-50.846-1.742-4.52-3.031-9.454-1.958-14.176 2.435-10.71 15.067-15.168 25.871-17.343a392.58 392.58 0 0178.892-7.706c1.406 16.336 15.048 30.947 31.361 33.098 16.314 2.151 33.507-8.728 38.087-24.476.136-.468.263-.941.391-1.416.57-2.116 1.145-4.254 2.505-5.948 1.666-2.074 5.054-3.094 6.998-1.276 14.413 13.472 29.536 26.424 46.771 36.059 17.234 9.635 36.816 15.849 56.558 14.978a890.473 890.473 0 01-103.159 30.581c-2.673.62-5.985 1.026-7.703-1.106-6.09-7.559-16.021-11.873-25.724-11.174-9.703.699-18.908 6.391-23.844 14.745-1.786 3.024-6.245 2.644-9.637 1.698-7.055-1.967-14.316-4.993-18.485-10.996-.704-1.013-1.314-2.104-1.922-3.192-1.192-2.13-2.379-4.253-4.258-5.774-2.659-2.152-6.142-2.676-9.591-3.196a72.368 72.368 0 01-2.85-.467c-10.647-2.031-20.076-9.576-24.366-19.495 10.037-6.697 23.591-3.519 34.673 1.271 1.746.754 3.495 1.546 5.251 2.342 9.396 4.255 18.982 8.596 29.116 7.668 8.617-.788 16.138-5.256 23.69-9.743 6.678-3.968 13.38-7.95 20.888-9.417 19.26-3.764 38.164 10.526 47.182 27.896l.207.401c1.475 2.851 3.07 5.936 6.028 7.133-3.018-16.907-15.763-31.737-32.064-37.309-16.302-5.573-35.5-1.663-48.299 9.837-7.941 7.136-20.009 7.64-30.374 5.018-5.839-1.478-11.403-3.791-16.971-6.105-4.317-1.795-8.637-3.591-13.089-4.999-10.193-3.223-21.965-4.177-31.038 1.464a64.775 64.775 0 00-10.765-16.435c4.359 24.921 27.171 45.411 52.499 47.155l-14.055 5.321c-3.284 1.243-6.688 2.564-9.098 5.111-4.126 4.361-4.268 11.07-3.604 17.027zm-6.934 174.316c-1.365 6.859-2.115 14.291.964 20.574 1.66 3.387 4.31 6.169 6.916 8.905l.178.187a592.44 592.44 0 0144.072 51.968 107.786 107.786 0 01-20.092 15.155c-2.023 1.182-4.208 2.331-6.553 2.289-3.495-.063-6.335-2.695-8.793-5.17a1430.895 1430.895 0 01-50.163-53.149c-5.171-5.767-10.428-11.806-12.778-19.176-2.987-9.368-.873-19.504 1.26-29.101 5.88-26.465 12.066-53.653 27.399-76.044 8.614 15.412 24.567 26.536 42.05 29.321-12.122 15.931-20.555 34.631-24.46 54.241zm109.238-295.055c-2.565 5.344-6.891 10.065-12.502 12.022-7.481 2.61-15.708-.001-23.032-3.02-3.806-1.569-7.651-3.309-10.599-6.176-2.502-2.432-4.216-5.542-5.803-8.645a184.092 184.092 0 01-12.194-30.143c-2.616-8.582-3.964-19.443 3-25.127 7.955 6.083 18.653 7.61 28.613 6.455 8.856-1.026 17.339-3.959 25.778-6.876 1.052-.364 2.105-.728 3.157-1.088 1.201-.41 2.624-.79 3.661-.059.793.56 1.073 1.585 1.289 2.53a135.07 135.07 0 012.753 42.934c-.569 5.896-1.556 11.85-4.121 17.193zm31.96 401.198c-14.259-18.941-23.812-41.374-27.573-64.753-1.615-10.038-2.137-20.558 1.221-30.158 3.206 12.573 18.392 20.603 30.639 16.2a247.463 247.463 0 018.707 20.079c6.843 17.909 11.5 38.289 3.922 55.901-1.821 4.234-5.42 8.742-9.993 8.066-2.964-.439-5.125-2.947-6.923-5.335zm-94.942-489.07c3.605-6.434 11.537-9.702 18.906-9.084 1.72.145 3.432.362 5.111.575 5.318.676 10.292 1.308 14.048-.575 5.719-2.866 8.109-6.851 10.541-10.907 1.624-2.708 3.267-5.448 5.931-7.907 1.686-1.556 3.566-3.05 5.81-3.541 4.59-1.006 8.997 2.477 11.611 6.368 5.61 8.351 6.35 19.718 1.87 28.722-4.933 9.916-15.105 16.121-25.281 20.56-7.326 3.194-15.079 5.785-23.074 5.95-7.996.165-16.316-2.358-21.829-8.13-5.513-5.773-7.542-15.074-3.644-22.031zm-22.544 521.838c-.342-2.533-.613-5.363.93-7.405 6.323.567 12.848-1.716 17.427-6.097-1.393-2.864-5.704-2.67-8.427-1.008-1.045.639-2.005 1.422-2.962 2.204-1.537 1.254-3.066 2.503-4.93 3.133-1.801-1.776-1.478-4.91.02-6.947 1.498-2.036 3.852-3.237 6.118-4.366l14.27-7.112c-2.741-2.704-7.311-2.739-10.81-1.121-3.5 1.617-6.177 4.553-8.753 7.413-2.86-4.977-.819-12.12 4.243-14.851l18.487-9.969c1.436-.774 2.959-1.57 4.592-1.522 3.534.105 5.666 3.918 6.633 7.306 2.797 9.804 1.944 20.224 1.068 30.378-1.288 14.932-2.598 29.979-6.801 44.369-1.448 4.96-3.735 10.362-8.547 12.285-5.219 2.086-11.359-1.08-14.481-5.741s-3.952-10.431-4.702-15.984l-3.375-24.965zm246.46-338.55c2.001-.244 3.735-2.548 2.76-4.306l-6.873-12.386c-.905-1.632-1.832-3.333-1.952-5.194-.121-1.86.812-3.929 2.592-4.504 2.548-.824 4.891 1.631 6.366 3.859a100.125 100.125 0 018.092 14.797c2.697-3.582-.25-8.528-2.942-12.114-2.693-3.585-5.049-9.083-1.682-12.049 3.327-2.929 8.613.073 11.161 3.695 1.338 1.903 2.439 4.013 3.535 6.116 2.123 4.073 4.232 8.117 8.026 10.56 1.639-.998.823-3.5-.17-5.138l-12.735-21.005c-1.139-1.878.743-4.425 2.922-4.742 2.18-.317 4.283.844 6.103 2.079 8.758 5.941 15.732 15.034 17.377 25.462 1.646 10.428-2.823 22.013-12.006 27.277-2.777 1.592-5.871 2.584-9.016 3.193-19.144 3.709-40.096-8.503-46.234-26.947-.939-2.823-1.165-6.679 1.5-8.016 2.032-1.019 4.487.192 6.18 1.707 2.445 2.189 4.192 4.99 5.941 7.792 1.683 2.699 3.368 5.4 5.679 7.557 1.471 1.374 3.374 2.551 5.376 2.307zm-199.71 20.724c2.352.072 4.79.147 6.745 1.409 2.156 1.391 3.096 4.913 1.053 6.466-.773.587-1.776.758-2.735.912-8.923 1.425-19.102 2.534-26.038-3.237-1.56.709-2.015 2.847-1.379 4.433.637 1.586 2.053 2.715 3.471 3.675a40.414 40.414 0 0021.44 6.892c-4.984 4.3-12.278 5.764-18.544 3.72-2.459-.803-5.919-1.718-7.007.622 4.826 4.596 12.191 4.949 18.865 5.035-11.924 5.662-27.569 1.975-35.683-8.41-.578-.74-1.881-.362-2.34.456-.459.818-.334 1.824-.196 2.751.702 4.718 1.666 9.906 5.425 12.86 1.99 1.564 4.458 2.245 6.928 2.927.986.271 1.971.543 2.927.872 3.352 1.15 6.815 3.675 6.847 7.207-10.796.927-21.364-5.169-27.9-13.781-6.536-8.611-9.539-19.408-10.923-30.116-.358-2.768-.61-5.634.197-8.307 1.608-5.321 6.883-8.538 11.745-11.26 3.527-1.975 8.391-3.794 11.188-.883 9.116 9.487 22.019 15.255 35.191 15.733.24.009.481.016.723.024zm23.156 19.128l138.163-38.11c6.017-1.66 13.138-3.111 17.952.849a2079.204 2079.204 0 01-166.02 43.704c-3.044.668-7.383.534-7.914-2.526 1.838.068 1.831-1.985 1.823-4.156-.008-2.137-.016-4.389 1.736-4.844l161.006-41.901c.974-.253 2.209-.422 2.807.384.97 1.312-1.017 2.777-2.592 3.213l-153.558 42.537c1.394 1.908 4.315 1.479 6.597.85zm155.776-10.982c-9.968 6.655-22.622 8.402-34.537 6.994-11.915-1.407-23.274-5.728-34.316-10.407l66.103-18.462c2.317-.647 5.178-1.156 6.813.604 13.413 14.44 37.82 17.017 53.973 5.698-1.884 8.986-10.04 16.297-19.208 17.214-5.222.523-10.364-.827-15.481-2.171-1.357-.356-2.712-.712-4.066-1.033-6.461-1.528-13.765-2.12-19.281 1.563zM256.954 148.76c.944-1.347 2.976-2.089 4.284-1.09 7.671 5.858 18.335 7.588 27.475 4.456 2.917-.999 6.235 1.07 7.439 3.9 1.204 2.83.718 6.108-.34 8.995-3.221 8.791-11.892 15.331-21.258 16.035-9.366.704-18.923-4.467-23.431-12.677-1.391-2.535-1.855-6.508.829-7.6 2.677-1.09 3.444-4.448 3.734-7.316l.008-.087c.163-1.608.333-3.294 1.26-4.616zm255.445 70.373c-1.079.291-2.22.577-3.3.289-1.08-.288-2.032-1.37-1.761-2.45a69.662 69.662 0 0027.165-10.478c3.184-2.085 6.564-5.718 4.957-9.16-1.066-2.282-3.926-3.16-6.45-3.058-3.656.149-7.063 1.783-10.349 3.385l-17.729 8.641c-.824-.973-.482-2.537.389-3.468.84-.897 2.032-1.357 3.184-1.801l.128-.05a74.778 74.778 0 0022.05-13.289c1.905-1.656.915-5.07-1.26-6.355-2.174-1.285-4.908-1.032-7.393-.569a56.258 56.258 0 00-20.294 8.106c-3.024 1.966-7.318 4.142-9.792 1.521 6.678-6.743 15.83-10.342 24.697-13.758l17.159-6.612c1.193-.459 2.483-.926 3.722-.61 1.686.43 2.674 2.128 3.438 3.687a115.129 115.129 0 019.469 27.889c.282 1.4.516 2.947-.208 4.179-.656 1.118-1.935 1.69-3.135 2.184a288.012 288.012 0 01-34.687 11.777zm-81.15.59c-.643.681-1.601.947-2.509 1.184l-157.571 41.108c2.446-5.887 9.636-7.901 15.884-9.26 43.476-9.455 86.065-22.493 128.607-35.517l7.258-2.221c2.099-.642 4.385-1.281 6.441-.514 2.057.767 3.394 3.626 1.89 5.22zM217.984 62.945c.966-3.148 2.544-7.499 5.013-9.687 1.26-1.115 2.965-2.305 4.48-1.57.953.46 1.42 1.526 1.811 2.507.584 1.467 1.418 3.434 2.252 5.4.834 1.967 1.668 3.934 2.253 5.401.819 2.058 1.612 5.256.109 6.295-6.425 4.444-4.963 20.667-2.086 28.132.687 1.782 1.277 5.435.684 8.097-.592 2.663-3.561 5.058-5.989 3.799-1.393-.722-3.602-4.548-4.403-5.934a50.377 50.377 0 00-.182-.315c-11.836-20.179-5.275-38.408-4.094-41.689a10.5 10.5 0 00.152-.436zm51.925 218.501a290.3 290.3 0 0031.177-7.56l.476-.144c3.188-.966 6.423-1.945 9.75-1.929-.418 5.247-3.343 10.107-7.355 13.53-4.012 3.422-9.036 5.507-14.182 6.693-3.902.899-8.016 1.303-11.893.305-3.878-.999-7.494-3.581-8.969-7.291-.528-1.33-.416-3.344.996-3.604zm13.044-31.299c-6.711.948-13.804.462-19.845-2.6-1.277-.647-.615-2.593.287-3.702 4.637-5.702 11.662-9.412 19.001-10.036 7.34-.623 14.894 1.848 20.433 6.685.916.8 1.847 2.065 1.228 3.11-.325.55-.976.804-1.58 1.02-6.379 2.281-12.813 4.576-19.524 5.523zm-20.675-62.026c-5.967-1.864-10.636-6.596-14.048-11.818-2.068-3.165-3.76-6.547-5.453-9.93-1.099-2.199-2.2-4.397-3.403-6.538 2.21-.366 4.363 1.136 5.589 3.005.875 1.335 1.406 2.845 1.936 4.357.213.605.426 1.211.661 1.805 4.411 11.161 17.55 17.854 29.383 15.642 11.833-2.212 21.429-12.597 23.48-24.417.216-1.242.607-2.779 1.848-3.025 1.34 1.115 1.4 3.132 1.163 4.856-1.716 12.515-13.102 21.931-25.266 25.487-5.161 1.509-10.758 2.18-15.89.576zm236.534 7.493a63.128 63.128 0 0125.492-11.856c1.11-.237 2.776.007 2.676 1.134-.032.356-.264.659-.493.934-4.594 5.522-11.319 8.753-17.826 11.819-1.824.859-3.746 1.738-5.759 1.614-2.013-.124-4.093-1.635-4.09-3.645zm32.265 2.779c.958-.305 2.006-.591 2.948-.239.941.352 1.564 1.641.901 2.394-5.708 6.493-14.248 9.697-22.581 12.056-2.179.617-5.382.601-5.754-1.625a83.234 83.234 0 0124.486-12.586zM306.924 103.27c.482-2.971 1.058-6.52 1.058-8.817 0-3.154.48-7.012 3.432-8.135 2.829-1.077 6.027 1.506 6.572 4.475.544 2.97-2.821 14.955-4.492 17.473-.764 1.15-1.652 2.297-2.909 2.875-1.257.579-2.968.391-3.737-.755-.401-.597-.491-1.342-.559-2.057-.069-.716.254-2.706.635-5.059zm.068-37.337c.147.211.211.467.27.718a55.703 55.703 0 011.408 15.865c-1.406.63-2.571-1.24-2.984-2.72l-1.768-6.33c-.695-2.493-1.255-5.543.602-7.35.674-.656 1.934-.954 2.472-.183zm-74.396 56.417c-1.827-1.258-3.308-2.278-3.308-5.39 0-3.682 3.993-7.271 4.863-6.574 3.165 2.534 8.852 15.099 9.137 19.134-2.382-.969-4.137-2.29-7.341-4.703a548.58 548.58 0 00-2.32-1.738c-.35-.26-.696-.498-1.031-.729zm20.766 143.551l6.454-1.36c.805-.169 1.783-.286 2.321.334 1.038 1.195-1.006 2.704-2.591 2.733-2.169.04-4.345-.56-6.184-1.707zm195.894-59.081c1.168.132 2.154 1.617 1.386 2.503l-.071.08c-1.008.768-2.168 1.578-3.424 1.398-1.256-.181-2.14-2.014-1.101-2.738.963-.672 2.043-1.375 3.21-1.243zm9.285 19.225l-1.467-.214-.143-.014-3.107-4.763c2.725-.879 5.761 2.334 4.717 4.991zm-6.825-8.596c-1.194.057-2.152-1.426-1.605-2.485.547-1.059 2.315-1.144 2.962-.143.647 1.002-.163 2.57-1.357 2.628zM288.826 62.106L277.608 67.4c-8.57 4.043-19.336 2.996-26.959-2.624-1.076-.248-2.009 1.033-1.827 2.12.182 1.084 1.067 1.905 1.954 2.561 6.146 4.54 14.55 5.108 21.964 3.226 7.414-1.88 14.063-5.93 20.505-10.044-.467-1.629-2.882-1.257-4.419-.532zM278.28 86.661c-.922.821-2.518-.294-2.503-1.526.015-1.233 1.018-2.223 2.052-2.899 4.337-2.835 10.554-2.395 14.445 1.022-.858 1.407-2.866 1.081-4.557.806a38.922 38.922 0 00-.39-.063c-3.21-.503-6.626.501-9.047 2.66zm-20.776 4.656c1.472-.335 3.029-1.457 2.889-2.955-.118-1.262-1.392-2.1-2.618-2.44-2.891-.8-6.21.24-8.118 2.547-1.907 2.307-2.299 5.753-.956 8.426.646-.576 1.173-1.284 1.696-1.99.778-1.046 1.548-2.084 2.695-2.665.868-.44 1.84-.557 2.815-.675.537-.065 1.075-.129 1.597-.248zm29.294 16.619c1.78-.025 2.981-1.858 3.429-3.575.92-3.531-.017-7.488-2.422-10.238-1.09-1.245-2.946-2.28-4.331-1.375-.429.28-.737.711-.985 1.158-1.739 3.13-.868 7.044.483 10.359.711 1.741 1.939 3.698 3.826 3.671zm-22.506.007l-.53-5.506c-.202-2.095-.652-4.559-2.568-5.445-2.618-1.21-5.384 1.69-6.07 4.483-.737 3-.311 6.268 1.169 8.982 1.343 2.461 4.687 4.523 6.822 2.701 1.415-1.208 1.355-3.367 1.177-5.215zm-4.422 412.704c14.757-.438 29.514-.869 44.271-1.295 1.622-.047 3.362-.061 4.708.842 1.247.837 1.93 2.436 1.669 3.912l-43.322.813c-1.609.03-3.275.05-4.755-.58-1.481-.629-2.73-2.096-2.571-3.692zm15.159-394.884c-1.582-.45-.837-2.789-.093-4.251 2.403-4.724 1.049-10.517-1.357-15.239l-.059-.116c-.535-1.046-1.105-2.164-.915-3.316.197-1.194 1.708-2.188 2.652-1.426.284.229.457.564.621.89 1.806 3.586 3.578 7.272 4.167 11.241.588 3.969-.17 8.326-2.902 11.274-.552.597-1.331 1.166-2.114.943zm2.359 15.044c7.408-1.183 13.349-8.37 13.095-15.841-.015-.444-.055-.907-.285-1.288-.643-1.07-2.392-.82-3.218.117-.679.77-.937 1.792-1.191 2.8-.054.217-.11.433-.169.646-.99 3.596-3.454 6.765-6.7 8.62-.159.09-.32.179-.482.268-.949.522-1.924 1.059-2.422 1.998-.582 1.099.14 2.876 1.372 2.68zm45.228 449.907c.316 8.873.37 195.403-.786 200.512-.215.95-.565 2.032-1.478 2.378-1.818.688-2.885-2.032-2.908-3.97-.183-15.707.57-192.54.387-210.997v-.001c-.183-18.457-.366-36.914-.549-52.621 3.015 0 4.006 10.598 4.006 17.443 0 22.999 1.328 47.256 1.328 47.256zM218.873 395.638c-.441-.256-.955-.513-1.481-.777-2.1-1.05-4.411-2.206-3.195-3.834a909.074 909.074 0 0096.484-.963c9.095-.575 19.355-1.901 24.761-9.211.216-.293.425-.595.634-.898.719-1.042 1.442-2.089 2.499-2.765 1.365-.872 3.548-.761 4.231.704-.963 7.836-8.335 14.369-16.259 14.408-3.467.017-4.642 4.526-5.081 7.953-.44 3.426-2.812 7.816-6.066 6.624a42.74 42.74 0 001.584-8.621c.078-.978.058-2.113-.702-2.738-.59-.485-1.428-.487-2.192-.465l-84.851 2.412c-.538.015-1.13.052-1.515.428-.469.458-.425 1.209-.349 1.859l6.022 51.159c.133 1.125.591 2.563 1.729 2.569l48.101.264c2.557.014 6.196 1.961 4.634 3.978-.64.826-1.84.902-2.886.906l-48.952.198c-2.068.008-2.652 2.808-2.576 4.866l.779 21.051c-5.88-4.175-6.283-12.556-6.324-19.75a375.6 375.6 0 00-5.616-62.572c-.451-2.578-1.143-5.468-3.413-6.785z" fill="#00160A"/>
  <path fill-rule="evenodd" clip-rule="evenodd" d="M327.79 495.017c2.015-4.552 6.707-7.804 11.69-8.102 1.296-.078 2.766.113 3.557 1.138.791 1.025.112 2.972-1.175 2.804-3.089-.404-6.172 1.166-8.339 3.396-2.168 2.229-3.582 5.061-4.962 7.844-1.982-1.618-1.805-4.744-.771-7.08z" fill="#00160A"/>
  <path fill-rule="evenodd" clip-rule="evenodd" d="M547.895 59.476c2.533.24 4.879-1.224 6.979-2.656 5.837-3.983 12.124-9.412 11.74-16.453-.121-2.236-.93-4.34-1.739-6.446-.346-.901-.693-1.803-.986-2.716-1.529-4.767-1.586-9.794-1.643-14.833-.046-4.133-.093-8.275-.953-12.29-.308-1.44-.925-3.076-2.343-3.485-.8-.23-1.651.004-2.449.237l-25.499 7.46c-4.8 1.404-5.828 7.618-5.966 12.603l-.374 13.565c-1.516.19-2.954-.403-4.393-.995a24.815 24.815 0 00-1.651-.635c-5.449-1.798-12.037 1.225-14.212 6.52-2.174 5.296.397 12.058 5.546 14.585 5.149 2.527 12.092.435 14.975-4.512 1.958-3.359 2.074-7.438 2.139-11.323l.12-7.294c.045-2.727 3.113-4.238 5.706-5.105a459.626 459.626 0 0124.168-7.347c.802-.22 1.8-.385 2.348.24.297.337.361.812.413 1.257l1.111 9.55c.165 1.417.005 3.322-1.393 3.622-6.751 1.45-12.753 6.047-15.898 12.178-1.34 2.611-2.186 5.61-1.592 8.484.593 2.873 2.917 5.514 5.846 5.79zm10.314-54.63c.285.288.367.713.436 1.111l.774 4.484c.204 1.184.398 2.456-.118 3.543-.814 1.717-2.976 2.233-4.852 2.602a103.012 103.012 0 00-12.798 3.383c-3.499 1.17-6.931 2.528-10.361 3.884l-.87.344c-.814.321-1.936.553-2.402-.183-.117-.184-.166-.402-.206-.616-.819-4.348 1.195-9.09 4.903-11.544 2.042-1.352 4.456-2.015 6.823-2.658l16.644-4.518c.688-.187 1.527-.337 2.027.168zm-33.58 35.75c-.07 4.201-1.086 9.005-4.823 11.04-2.966 1.612-6.838.837-9.528-1.19-3.161-2.38-4.896-7.118-2.586-10.307.962-1.328 2.465-2.189 4.02-2.752 3.574-1.294 7.657-1.163 11.138.355.555.242 1.123.542 1.444 1.05.333.526.345 1.183.335 1.803zM79.132 49.983c.432 1.326 2.313 1.275 3.675.956l12.385-2.896a55.661 55.661 0 00-1.87-9.508c-.265-.916-.584-1.874-1.305-2.5-1.115-.971-2.785-.837-4.254-.646L68.74 37.857c-1.307.17-3.05 1.016-2.552 2.23a200.523 200.523 0 0110.254 32.9c.47 2.148.392 5.165-1.764 5.637-6.244 1.364-11.587 6.248-13.49 12.328-.584 1.871-.85 3.95-.093 5.757.41.98 1.099 1.823 1.87 2.555 3.704 3.516 9.61 4.493 14.255 2.36 4.645-2.134 7.735-7.244 7.457-12.333-.105-1.922-.642-3.792-1.175-5.642l-12.16-42.178 16.1-1.258c1.618.09 2.3 2.38 1.446 3.75-.854 1.372-2.551 1.942-4.14 2.26-.228.046-.46.09-.69.133-1.376.258-2.776.52-3.892 1.34-.722.532-1.312 1.437-1.035 2.288z" fill="#B2DBE4"/>
  <path fill-rule="evenodd" clip-rule="evenodd" d="M325.138 481.376c-.484.626-1.575.447-2.041-.192-.465-.64-.424-1.525-.17-2.273.454-1.34 1.483-2.405 2.56-3.326a24.523 24.523 0 019.369-4.972c1.356-.374 2.937-.59 4.058.254 1.122.845.941 3.1-.459 3.225-5.19.463-10.139 3.17-13.317 7.284z" fill="#00160A"/>
</svg>
